<?xml version="1.0" standalone="no"?>
<!DOCTYPE svg PUBLIC "-//W3C//DTD SVG 20010904//EN"
 "http://www.w3.org/TR/2001/REC-SVG-20010904/DTD/svg10.dtd">
<svg version="1.0" xmlns="http://www.w3.org/2000/svg"
 width="512.000000pt" height="512.000000pt" viewBox="0 0 512.000000 512.000000"
 preserveAspectRatio="xMidYMid meet">
<metadata>
Created by potrace 1.14, written by Peter Selinger 2001-2017
</metadata>
<g transform="translate(0.000000,512.000000) scale(0.100000,-0.100000)"
fill="#000000" stroke="none">
<path d="M2730 4699 c0 -5 5 -7 10 -4 6 3 10 8 10 11 0 2 -4 4 -10 4 -5 0 -10
-5 -10 -11z"/>
<path d="M2293 4684 c7 -12 -78 -29 -94 -18 -5 3 -9 1 -9 -5 0 -5 -8 -10 -17
-10 -25 1 -65 -7 -85 -16 -10 -4 -26 -4 -35 0 -28 13 -44 14 -37 4 3 -5 10 -7
15 -4 5 4 9 2 9 -4 0 -6 -17 -13 -37 -17 -21 -4 -53 -13 -71 -21 -18 -7 -37
-11 -42 -8 -6 4 -10 1 -10 -4 0 -6 -9 -11 -21 -11 -13 0 -18 4 -13 13 4 7 3 9
-2 4 -5 -5 -9 -13 -9 -18 0 -5 -3 -9 -8 -9 -4 0 -21 -7 -37 -15 -17 -9 -35
-13 -40 -10 -6 3 -10 2 -10 -3 0 -12 -56 -33 -64 -25 -3 4 -6 1 -6 -5 0 -14
-89 -54 -101 -46 -5 3 -8 1 -7 -4 2 -6 -1 -10 -6 -10 -5 0 -12 -4 -15 -9 -12
-18 -112 -73 -122 -68 -5 4 -9 -1 -9 -9 0 -9 -7 -16 -15 -16 -8 0 -15 -4 -15
-10 0 -5 -5 -10 -10 -10 -6 0 -21 -9 -33 -20 -12 -11 -27 -18 -34 -16 -7 3
-13 1 -13 -4 0 -16 -64 -70 -77 -65 -7 2 -12 -1 -10 -8 1 -7 -4 -11 -11 -9 -8
1 -11 -1 -8 -6 7 -12 -83 -94 -95 -87 -5 4 -8 2 -7 -2 4 -12 -58 -83 -72 -83
-6 0 -9 -4 -5 -9 3 -6 -1 -13 -9 -18 -8 -4 -34 -33 -57 -63 -24 -30 -47 -57
-50 -60 -13 -9 -159 -232 -159 -242 0 -5 -5 -6 -12 -2 -6 4 -8 3 -5 -3 9 -14
-47 -115 -58 -106 -4 5 -5 3 -1 -4 8 -14 -34 -114 -45 -108 -4 3 -5 -5 -1 -17
3 -14 1 -19 -6 -14 -8 4 -10 2 -6 -7 3 -8 -2 -21 -10 -30 -8 -8 -12 -17 -9
-20 3 -4 -2 -18 -12 -33 -9 -15 -12 -23 -6 -20 6 4 3 -12 -8 -36 -10 -24 -24
-71 -31 -105 -8 -35 -17 -63 -21 -63 -4 0 -5 -10 -1 -22 3 -12 1 -19 -5 -15
-5 4 -8 -6 -5 -24 2 -16 0 -29 -6 -29 -6 0 -10 -10 -10 -22 4 -58 -2 -89 -14
-82 -10 6 -10 5 -1 -8 7 -8 11 -17 9 -19 -13 -13 -24 -386 -12 -444 2 -11 7
-51 11 -90 4 -38 13 -96 20 -128 7 -31 13 -58 13 -60 0 -14 17 -86 24 -100 6
-13 5 -23 -4 -35 -9 -11 -10 -14 0 -8 14 8 36 -39 28 -61 -3 -8 -2 -12 3 -9 6
4 34 -65 33 -84 0 -3 6 -16 13 -30 7 -14 21 -43 30 -65 9 -22 25 -58 35 -79
11 -22 16 -44 13 -49 -3 -6 -1 -7 5 -3 11 6 17 -13 13 -37 -1 -5 2 -6 7 -3 5
3 22 -18 37 -47 16 -29 31 -54 34 -57 3 -3 25 -33 49 -68 38 -55 42 -65 30
-80 -12 -15 -11 -16 4 -4 14 11 20 8 43 -22 15 -19 24 -40 20 -46 -4 -6 -2 -9
3 -8 9 3 72 -56 72 -66 0 -7 74 -79 143 -141 31 -27 53 -53 50 -59 -3 -5 -2
-6 4 -3 9 6 51 -23 94 -65 10 -9 20 -14 23 -10 3 3 6 1 6 -5 0 -5 12 -15 26
-21 14 -7 22 -17 19 -22 -3 -5 0 -7 8 -4 8 3 21 -3 28 -13 8 -10 21 -19 29
-21 8 -2 29 -14 46 -27 17 -13 34 -21 38 -18 3 4 6 2 6 -4 0 -6 10 -13 23 -17
19 -5 20 -8 7 -17 -12 -9 -12 -10 4 -5 11 4 50 -9 100 -33 70 -34 149 -70 166
-76 3 -1 24 -7 48 -14 23 -6 40 -16 37 -21 -3 -4 4 -6 15 -3 13 3 22 -1 26
-12 4 -9 10 -12 13 -7 3 6 18 8 33 5 15 -3 26 -8 24 -12 -2 -3 6 -7 17 -7 12
-1 31 -4 42 -6 49 -12 101 -21 113 -19 6 1 12 -2 12 -7 0 -5 12 -7 26 -4 15 3
24 1 21 -4 -3 -5 15 -8 39 -7 30 1 42 -2 38 -9 -5 -7 -2 -8 6 -3 7 4 16 2 21
-6 6 -10 9 -11 9 -1 0 6 12 12 26 12 14 0 23 -4 20 -8 -3 -5 1 -9 9 -9 8 0 12
4 9 9 -3 4 0 8 5 8 6 0 11 -3 11 -7 0 -7 233 -9 250 -3 3 1 28 4 55 6 28 2 58
6 68 8 9 2 15 0 12 -4 -3 -5 0 -12 6 -15 5 -4 8 -14 5 -22 -3 -8 -1 -11 4 -8
6 3 10 0 10 -8 0 -30 61 -97 112 -124 l53 -27 905 0 c990 0 935 -3 1008 59 39
32 71 91 79 143 8 56 9 253 1 285 -3 15 -4 27 0 27 9 0 7 294 -2 309 -4 6 -4
11 1 11 10 0 9 293 -1 309 -4 6 -4 11 1 11 10 0 9 293 -1 309 -4 6 -4 11 1 11
10 0 9 293 -1 309 -4 6 -4 11 1 11 7 0 9 114 3 130 -1 3 -1 15 0 28 3 36 -20
94 -55 137 -51 64 -123 92 -237 94 -36 1 -36 2 -28 31 5 16 5 32 1 35 -5 2 -5
23 -1 45 4 22 4 43 -1 46 -4 2 -4 15 1 28 5 13 6 27 3 30 -3 3 -7 25 -9 48 -8
125 -13 168 -18 177 -3 5 -7 34 -9 64 -1 30 -6 53 -11 50 -5 -3 -7 6 -4 20 3
16 1 24 -5 20 -6 -4 -8 4 -5 21 3 14 1 26 -5 26 -5 0 -7 9 -4 20 3 10 0 21 -6
23 -6 2 -11 19 -11 39 -1 20 -4 34 -8 31 -5 -2 -8 3 -8 11 0 8 8 20 18 25 9 6
12 11 6 11 -5 0 -15 -5 -22 -12 -12 -12 -13 -10 -12 17 0 3 -7 19 -15 35 -9
17 -13 35 -10 40 3 6 2 10 -4 10 -9 0 -37 68 -33 83 1 4 -2 7 -8 7 -6 0 -9 3
-8 8 1 4 -6 22 -15 40 -10 18 -15 37 -12 42 3 6 2 10 -4 10 -9 0 -43 53 -46
70 0 3 -13 24 -28 48 -15 23 -25 47 -22 53 4 5 2 8 -3 7 -15 -4 -64 71 -56 85
4 7 4 9 -1 5 -7 -7 -55 42 -55 56 0 4 -10 17 -22 30 -13 13 -37 41 -54 62 -18
22 -61 69 -97 106 -36 37 -62 70 -59 73 4 4 2 5 -3 3 -9 -3 -92 62 -151 118
-13 12 -25 19 -28 17 -3 -3 -8 2 -12 11 -3 9 -12 16 -18 16 -7 0 -27 15 -46
33 -18 17 -30 26 -26 19 7 -11 4 -11 -13 0 -12 7 -19 18 -17 24 2 6 -6 10 -18
10 -11 -1 -20 4 -19 11 2 8 -4 10 -14 6 -12 -5 -14 -3 -8 7 5 8 4 11 -2 7 -15
-9 -125 52 -117 65 4 7 2 8 -5 4 -7 -4 -29 0 -49 10 -20 10 -39 19 -42 19 -3
1 -26 11 -52 23 -26 12 -52 22 -57 22 -6 0 -11 4 -11 10 0 5 -7 6 -17 3 -10
-4 -14 -2 -10 4 5 7 -1 9 -15 5 -11 -3 -19 -1 -16 4 4 5 -10 10 -30 12 -20 1
-41 7 -46 12 -6 6 -21 10 -34 10 -13 0 -21 4 -18 8 2 4 -7 8 -22 9 -47 2 -72
7 -72 15 0 4 -7 4 -17 1 -9 -4 -14 -2 -11 3 4 5 -10 9 -30 10 -21 0 -50 3 -67
6 -16 4 -43 7 -58 7 -20 1 -26 5 -21 14 5 8 2 8 -9 -2 -12 -9 -21 -10 -29 -4
-16 13 -457 13 -464 1 -3 -5 -13 -3 -22 4 -9 7 -13 8 -9 2z m213 -1426 c-4 7
-2 12 8 12 8 0 17 -4 20 -8 8 -13 -11 -35 -23 -28 -6 4 -11 1 -11 -6 0 -10 -2
-10 -9 1 -9 13 -31 8 -31 -8 0 -8 47 -7 128 2 17 2 38 0 44 -4 7 -4 18 -3 25
3 9 7 13 7 13 -1 0 -6 11 -11 24 -11 14 0 28 -5 32 -11 4 -8 9 -7 15 2 6 10 9
11 9 2 0 -7 9 -13 20 -13 11 0 29 -9 40 -20 11 -11 20 -16 20 -10 0 10 70 -27
81 -43 5 -7 26 -14 54 -16 6 -1 3 -6 -5 -12 -12 -9 -11 -10 8 -6 25 6 28 -3
10 -22 -11 -10 -9 -11 5 -5 12 4 23 0 32 -12 13 -18 14 -18 12 4 -1 12 -8 22
-15 22 -8 0 -12 6 -8 15 3 8 2 14 -2 12 -4 -1 -27 7 -50 18 -27 13 -40 25 -37
34 5 11 3 12 -10 1 -11 -9 -15 -9 -15 -1 0 7 -4 9 -10 6 -14 -8 -13 8 1 22 14
14 62 -13 52 -30 -3 -6 -1 -7 5 -3 13 8 30 -2 86 -52 37 -32 37 -34 21 -52
-17 -19 -17 -21 9 -41 14 -11 24 -25 20 -30 -3 -5 -2 -8 3 -7 4 2 8 -1 8 -7 0
-5 -4 -9 -8 -7 -5 1 -6 -2 -2 -8 3 -6 10 -8 15 -5 10 6 32 -20 23 -28 -3 -4 1
-7 11 -7 10 0 14 -5 10 -12 -4 -6 -3 -8 3 -5 6 4 11 -4 11 -19 0 -15 4 -29 9
-33 5 -3 8 -13 8 -21 0 -8 5 -21 12 -28 7 -8 11 -18 8 -23 -4 -5 -2 -9 4 -9 6
0 8 -7 5 -15 -4 -8 -1 -15 5 -15 6 0 11 3 11 7 0 10 -21 76 -31 95 -5 10 -7
23 -5 30 1 7 1 10 -1 5 -8 -12 -22 3 -17 17 3 8 0 17 -5 21 -6 3 -8 11 -5 17
4 6 2 8 -4 4 -6 -3 -13 -2 -17 4 -3 5 -2 10 4 10 5 0 -6 16 -25 36 -19 20 -34
41 -34 46 0 5 -5 6 -11 2 -7 -4 -10 1 -7 11 1 10 10 20 18 23 8 3 12 1 8 -3
-4 -4 2 -16 13 -26 12 -10 18 -23 13 -30 -4 -7 -3 -9 3 -6 6 4 16 0 23 -8 7
-8 9 -15 6 -15 -4 0 2 -10 14 -22 11 -12 20 -27 20 -34 0 -7 4 -14 10 -16 5
-1 11 -15 12 -30 1 -15 9 -30 16 -33 8 -3 11 -12 8 -20 -3 -8 -1 -15 4 -15 6
0 10 -8 10 -17 0 -15 -2 -16 -10 -3 -6 9 -10 10 -10 3 0 -7 6 -16 14 -20 8 -4
16 -19 18 -33 2 -18 -2 -26 -17 -28 -16 -4 -17 -2 -7 11 11 13 10 15 -7 10
-12 -3 -19 -9 -16 -13 3 -4 -2 -11 -11 -14 -9 -3 -12 -11 -8 -18 9 -15 10
-140 1 -155 -4 -7 -3 -14 1 -17 5 -3 7 -16 5 -28 -4 -22 -9 -23 -80 -21 -85 1
-139 -14 -192 -55 -20 -15 -39 -26 -43 -24 -5 1 -7 -1 -6 -6 3 -12 -13 -52
-21 -52 -4 0 -8 -6 -9 -12 0 -7 -4 -35 -9 -63 -4 -27 -8 -110 -8 -182 0 -132
-5 -149 -34 -120 -10 10 -11 9 -6 -4 5 -12 -6 -18 -49 -28 -31 -7 -60 -10 -66
-6 -5 3 -10 2 -10 -3 0 -14 -133 -12 -142 2 -5 7 -8 7 -8 1 0 -15 -70 -6 -70
9 0 6 -5 4 -10 -4 -5 -8 -10 -10 -10 -5 0 6 -8 12 -17 13 -19 2 -54 9 -63 12
-3 1 -9 2 -13 1 -4 -1 -10 5 -13 13 -3 8 -11 13 -19 10 -7 -3 -19 2 -28 10 -9
9 -22 16 -30 16 -12 0 -26 9 -74 50 -7 5 -15 10 -18 10 -13 0 -45 42 -39 52 4
7 3 8 -5 4 -7 -5 -25 5 -44 25 -18 17 -25 28 -17 23 8 -4 -2 9 -22 29 -26 25
-35 42 -31 55 3 9 2 14 -2 9 -10 -9 -68 100 -60 114 4 5 2 9 -3 9 -6 0 -13 12
-16 28 -4 15 -9 34 -11 42 -3 11 2 16 15 16 19 0 25 -9 21 -29 -1 -5 3 -6 8
-3 5 4 9 16 8 27 -1 16 -6 19 -24 15 -12 -4 -25 -1 -28 4 -14 22 -15 63 -3 78
8 10 9 13 1 9 -18 -11 -21 26 -3 41 8 8 9 11 3 7 -7 -3 -13 -2 -13 2 0 5 6 15
13 22 10 11 10 13 0 7 -8 -5 -13 -1 -13 9 0 10 5 13 13 9 9 -6 9 -4 -1 8 -14
17 -6 48 12 48 6 0 5 4 -3 9 -9 6 -11 15 -6 27 4 11 9 24 9 29 4 37 61 165 78
176 5 3 10 10 11 15 1 5 6 8 10 6 4 -1 7 5 5 14 -2 9 3 19 11 22 9 3 11 0 6
-8 -5 -9 -4 -11 4 -6 9 6 9 11 1 21 -8 10 -4 15 17 23 15 6 22 11 14 11 -19 1
6 31 27 31 8 0 12 3 9 7 -9 9 33 54 44 47 5 -3 9 -1 9 5 0 14 55 42 65 33 5
-4 5 -2 1 5 -4 7 2 16 13 22 14 8 21 8 24 -2 4 -8 6 -6 6 4 1 17 47 43 62 34
5 -4 9 -2 9 3 0 13 52 28 117 35 18 2 36 7 40 10 3 4 13 1 21 -6 13 -9 14 -9
8 1z m78 0 c-5 -9 -2 -9 9 1 11 9 17 10 17 2 0 -6 5 -11 11 -11 5 0 7 5 4 10
-7 11 18 14 28 3 4 -4 26 -8 49 -11 24 -2 46 -9 50 -15 4 -7 8 -8 8 -3 0 6 7
1 16 -10 8 -10 13 -13 9 -6 -8 16 5 15 46 -2 44 -19 51 -26 38 -43 -9 -10 -15
-10 -25 -2 -8 6 -14 8 -14 4 0 -5 -8 -1 -17 7 -19 16 -62 33 -75 30 -5 -1 -8
2 -8 6 0 4 -10 9 -22 9 -13 1 -48 4 -78 6 -30 2 -65 0 -78 -4 -20 -8 -21 -7
-13 10 6 10 7 21 4 25 -3 3 6 6 21 6 19 0 25 -4 20 -12z"/>
<path d="M2377 3231 c6 -7 10 -19 9 -25 -2 -6 -1 -7 2 -3 2 4 10 3 17 -3 9 -8
15 -8 20 0 3 6 11 8 16 5 5 -4 9 1 9 9 0 9 -4 16 -10 16 -5 0 -10 -4 -10 -9 0
-13 -24 -8 -46 9 -13 10 -15 10 -7 1z"/>
<path d="M2353 3224 c4 -7 0 -17 -8 -24 -8 -7 -15 -9 -15 -5 0 5 -8 1 -18 -8
-29 -27 -74 -40 -84 -25 -6 9 -8 7 -6 -7 2 -14 -2 -20 -14 -19 -10 1 -14 -4
-11 -12 3 -9 -3 -12 -24 -8 -19 3 -24 2 -14 -5 11 -7 9 -11 -8 -20 -12 -7 -18
-17 -15 -23 5 -7 2 -8 -5 -4 -7 5 -10 14 -7 22 3 8 0 14 -5 14 -6 0 -9 -9 -6
-20 3 -13 -2 -25 -16 -35 -12 -8 -17 -15 -12 -15 5 0 0 -6 -10 -14 -11 -8 -23
-12 -26 -10 -4 2 -5 -5 -2 -16 3 -12 0 -20 -6 -20 -7 0 -9 -5 -5 -12 5 -8 2
-9 -9 -5 -9 3 -16 3 -16 -1 4 -24 -2 -42 -13 -36 -7 5 -8 3 -3 -6 6 -10 4 -12
-7 -7 -12 4 -14 1 -11 -13 3 -11 -4 -32 -16 -48 -11 -16 -18 -32 -14 -35 3 -4
1 -12 -5 -20 -6 -7 -13 -29 -15 -48 -2 -19 -6 -39 -9 -44 -3 -6 -5 -22 -4 -37
1 -16 -1 -28 -4 -28 -9 0 -6 -114 4 -129 7 -11 5 -13 -7 -8 -14 5 -15 3 -4
-13 6 -11 15 -20 19 -20 9 0 5 62 -5 78 -8 12 -2 16 17 13 5 -1 4 5 -3 13 -7
9 -11 23 -7 31 3 8 0 15 -6 15 -7 0 -7 4 -1 13 6 6 9 20 8 30 -2 9 2 17 8 17
7 0 5 5 -3 10 -9 6 -10 10 -3 10 6 0 12 8 11 18 0 26 10 63 22 77 8 10 8 15
-1 20 -8 6 -7 10 5 17 9 5 16 16 16 24 0 8 4 13 9 10 5 -4 7 4 3 16 -4 17 -2
20 12 15 10 -4 15 -3 11 3 -5 9 22 55 53 88 7 8 10 18 7 23 -4 5 1 9 9 9 9 0
16 7 16 16 0 8 5 12 10 9 6 -3 10 -1 10 5 0 7 6 10 14 7 10 -4 13 0 11 14 -3
15 0 19 11 15 9 -3 12 -1 9 4 -3 6 0 10 8 10 8 0 26 11 41 25 15 14 29 25 32
25 3 0 26 10 52 22 26 11 52 21 59 21 13 0 12 32 -2 44 -4 5 -5 3 -2 -3z"/>
<path d="M2506 3175 c-3 -8 -12 -12 -21 -9 -8 3 -15 1 -15 -6 0 -6 5 -8 13 -4
9 6 8 3 -1 -9 -12 -14 -11 -16 7 -14 19 1 25 9 22 30 0 4 4 7 9 7 6 0 10 -5
10 -11 0 -8 4 -9 13 0 8 6 16 10 18 8 2 -1 4 -1 4 0 0 1 -4 2 -10 3 -5 1 -17
6 -27 11 -11 6 -18 4 -22 -6z"/>
<path d="M2572 3173 c2 -10 -3 -18 -9 -19 -7 -1 -16 -3 -20 -4 -5 -1 -11 -2
-15 -1 -4 0 -4 -7 -1 -16 4 -11 3 -14 -5 -9 -7 4 -12 2 -12 -6 0 -9 -3 -9 -10
2 -8 12 -10 12 -10 1 0 -11 -3 -11 -15 -1 -21 18 -26 9 -9 -15 13 -17 16 -18
24 -5 8 12 11 11 16 -7 4 -13 10 -23 15 -23 13 0 11 14 -3 28 -8 8 -9 12 -1
12 6 0 14 -6 17 -12 3 -7 4 -4 3 7 -2 21 22 28 36 10 5 -5 5 1 2 13 -6 22 -5
23 16 17 21 -7 22 -6 10 9 -17 20 -5 21 15 1 9 -8 21 -15 27 -15 8 0 7 3 -2 9
-9 6 -10 11 -2 15 6 4 11 2 11 -4 0 -6 5 -8 13 -4 9 6 8 3 -1 -9 -12 -14 -11
-16 7 -14 12 1 21 6 21 11 0 16 18 -7 22 -28 1 -11 11 -20 21 -22 10 -1 16 3
14 9 -3 7 -9 11 -15 10 -12 -3 -10 23 3 34 4 4 5 3 2 -3 -4 -7 0 -17 8 -24 8
-7 15 -9 15 -4 -1 14 -29 60 -30 48 0 -6 -7 -11 -15 -11 -10 0 -14 6 -10 15 4
12 3 13 -10 2 -12 -10 -20 -9 -41 5 -15 9 -23 12 -20 6 9 -14 -5 -14 -39 -1
-22 8 -25 7 -23 -7z"/>
<path d="M2416 3158 c-9 -5 -26 -11 -38 -13 -23 -5 -37 -15 -20 -15 6 0 9 -8
7 -19 -2 -10 3 -30 10 -44 7 -14 11 -28 8 -31 -3 -3 -1 -12 5 -19 7 -8 9 -16
6 -20 -8 -8 15 -47 28 -47 9 0 9 3 0 12 -16 16 -15 31 1 25 8 -3 14 1 14 8 0
11 -5 11 -21 3 -12 -6 -18 -7 -14 -3 4 5 3 14 -3 21 -7 8 -7 14 1 19 7 4 5 11
-5 21 -18 18 -14 56 6 62 12 3 12 2 0 -6 -9 -7 -10 -12 -2 -16 10 -6 15 5 13
26 -1 3 5 9 13 12 11 4 12 0 5 -20 -7 -17 -7 -23 0 -19 6 4 9 1 8 -6 -2 -6 7
-12 19 -14 24 -2 45 -15 24 -15 -7 0 -9 -5 -6 -10 4 -6 12 -7 18 -3 19 11 49
11 53 -1 7 -19 42 -17 39 2 -2 9 -4 19 -4 22 -1 3 -5 -1 -10 -9 -6 -9 -11 -10
-15 -2 -4 6 -2 11 4 11 7 0 10 7 6 15 -5 13 -2 14 15 4 14 -7 19 -7 15 0 -8
12 24 30 42 24 6 -3 12 0 12 6 0 6 -6 11 -12 12 -7 0 -23 2 -35 3 -12 1 -20
-1 -17 -6 10 -16 -7 -28 -25 -18 -15 8 -18 5 -16 -15 2 -13 -3 -26 -11 -29
-20 -7 -45 4 -37 17 3 5 1 7 -5 4 -13 -9 -44 2 -37 13 3 5 1 11 -4 15 -6 3 -8
12 -5 20 4 8 10 12 15 9 5 -3 6 1 3 9 -6 16 -25 18 -48 5z m4 -12 c0 -2 -10
-11 -23 -19 -19 -12 -24 -13 -24 -2 0 8 3 12 7 10 3 -2 12 0 20 6 17 10 20 11
20 5z"/>
<path d="M2761 3129 c-1 -43 -4 -59 -13 -59 -4 0 -8 6 -8 13 0 9 -2 9 -9 -1
-7 -11 -9 -10 -15 3 -3 9 -11 13 -17 9 -8 -4 -9 1 -4 17 7 24 7 24 -9 4 l-16
-20 7 20 c7 19 6 19 -11 2 -10 -10 -25 -16 -33 -13 -9 4 -11 2 -7 -6 5 -8 2
-9 -9 -5 -10 4 -16 2 -14 -6 1 -7 -4 -11 -12 -9 -12 3 -12 0 -1 -12 7 -9 9
-16 5 -16 -4 0 -2 -6 4 -14 9 -11 5 -13 -19 -12 -17 1 -34 6 -38 11 -8 12 -32
13 -48 2 -14 -8 -37 16 -26 28 4 5 0 6 -9 2 -9 -3 -22 0 -28 6 -13 13 -41 18
-41 7 0 -4 7 -13 15 -20 11 -9 12 -16 5 -25 -13 -16 2 -28 24 -19 13 5 15 1
12 -17 -2 -14 -10 -23 -17 -21 -11 3 -11 1 -2 -9 12 -12 6 -42 -7 -34 -5 3 -8
-3 -7 -13 0 -10 6 -19 13 -19 7 0 10 7 6 16 -5 14 -3 14 11 2 16 -13 22 -8 18
13 -1 5 5 3 14 -4 8 -7 19 -10 23 -6 4 4 -1 13 -11 21 -11 8 -15 20 -12 31 4
11 -3 3 -15 -16 -16 -27 -19 -30 -14 -10 3 14 12 31 18 39 9 12 8 13 -3 6 -10
-5 -12 -4 -7 4 6 9 11 9 22 0 8 -7 14 -7 14 -1 0 15 -26 33 -35 24 -5 -4 -5
-1 -1 6 6 9 11 10 20 3 7 -6 17 -7 21 -3 5 4 5 1 1 -5 -9 -16 6 -17 22 -1 8 8
15 8 25 0 8 -7 18 -8 22 -4 5 4 5 2 1 -5 -4 -7 -14 -9 -24 -6 -14 6 -15 4 -5
-9 7 -8 10 -18 6 -21 -3 -4 1 -7 10 -7 10 0 16 3 16 8 -3 18 2 32 12 32 5 0 8
-4 5 -8 -2 -4 -1 -14 5 -22 8 -14 11 -7 8 16 0 4 5 10 12 15 14 8 22 39 10 39
-4 0 -8 7 -8 16 0 14 2 14 11 3 16 -20 45 -23 42 -5 -3 20 -16 33 -16 17 0 -7
-5 -9 -11 -5 -8 4 -7 9 2 15 7 4 18 4 25 -1 6 -6 15 -6 19 -2 5 4 4 0 -1 -8
-9 -16 -14 -40 -8 -40 2 0 11 12 19 28 9 15 14 20 11 10 -3 -11 1 -15 12 -13
24 4 35 -5 23 -19 -7 -8 -4 -15 9 -24 17 -10 19 -9 15 18 -2 20 0 28 7 24 6
-4 8 -2 5 4 -5 6 0 8 13 5 12 -3 20 0 20 6 0 7 -7 11 -16 9 -10 -2 -19 2 -21
8 -2 7 6 11 21 10 13 0 22 -4 19 -9 -5 -9 34 -4 43 6 7 6 -10 10 -21 5 -2 -2
-10 6 -18 16 -9 12 -19 16 -27 11 -7 -4 -16 -2 -20 5 -5 9 -8 5 -9 -11z m49
-9 c0 -5 -2 -10 -4 -10 -3 0 -8 5 -11 10 -3 6 -1 10 4 10 6 0 11 -4 11 -10z
m-374 -64 c18 -18 18 -22 -2 -30 -9 -3 -12 -2 -9 5 4 5 1 16 -5 24 -16 19 -3
19 16 1z"/>
<path d="M2860 3090 c-8 -5 -17 -7 -21 -4 -4 2 -14 -4 -21 -14 -7 -11 -16 -20
-21 -20 -25 -2 -32 -10 -19 -23 23 -25 6 -35 -25 -16 -7 5 -13 5 -13 0 0 -4
-4 -1 -10 7 -5 9 -5 19 1 27 8 9 5 11 -11 8 -12 -2 -28 -9 -36 -16 -11 -9 -18
-8 -29 1 -8 7 -16 10 -16 6 -1 -3 -2 -9 -3 -13 -5 -24 -38 -73 -46 -68 -11 7
-41 -5 -35 -15 5 -7 -43 -5 -51 3 -3 2 2 7 11 11 11 4 14 2 9 -6 -4 -6 -3 -8
4 -5 9 6 9 27 2 47 -1 3 -2 10 -1 15 1 6 -10 -3 -24 -18 -24 -27 -24 -29 -9
-50 18 -24 86 -33 77 -11 -6 17 11 24 27 12 12 -8 12 -9 -2 -4 -25 8 -22 -1 3
-15 15 -8 19 -8 15 0 -4 6 -2 11 5 11 9 0 9 3 0 14 -10 11 -9 14 1 12 7 -1 19
-5 26 -10 11 -7 12 -4 2 13 -6 12 -15 19 -20 16 -6 -3 -7 1 -3 10 5 13 7 14
14 3 7 -10 9 -10 10 2 1 8 1 19 0 23 -1 5 3 6 8 2 6 -3 7 -13 4 -23 -6 -15 -5
-15 10 -3 9 7 15 17 12 21 -9 14 16 23 28 11 9 -9 8 -11 -5 -6 -12 5 -16 2
-13 -12 2 -10 4 -20 4 -23 1 -3 5 2 11 10 7 12 12 12 29 -4 12 -11 21 -15 21
-10 0 5 4 4 8 -3 5 -8 12 -8 27 3 14 11 16 17 7 26 -16 16 4 39 26 31 15 -6
15 -4 4 10 -12 14 -11 16 7 12 14 -2 19 0 15 7 -4 7 -3 8 4 4 19 -11 14 -29
-5 -21 -14 5 -15 3 -6 -5 8 -9 16 -9 30 -1 10 6 14 11 9 11 -5 0 -3 6 3 14 14
17 -8 29 -29 16z m-336 -111 c-3 -5 -10 -7 -15 -3 -5 3 -7 10 -3 15 3 5 10 7
15 3 5 -3 7 -10 3 -15z"/>
<path d="M2904 3072 c-5 -4 -9 -16 -9 -27 0 -11 -3 -25 -7 -31 -4 -6 -2 -11 6
-11 8 0 21 13 30 28 13 21 13 29 3 37 -7 6 -17 8 -23 4z m19 -27 c-7 -21 -12
-19 -10 4 0 11 5 18 9 15 4 -3 5 -11 1 -19z"/>
<path d="M2805 3031 c-3 -2 1 -11 7 -19 10 -11 7 -17 -12 -32 -29 -22 -40 -21
-59 3 -9 13 -16 16 -24 8 -7 -7 -14 -7 -23 0 -9 7 -15 5 -23 -9 -6 -11 -8 -22
-5 -25 3 -3 3 -11 -1 -17 -5 -8 -11 -6 -19 5 -10 15 -12 14 -13 -5 -1 -11 2
-18 8 -15 5 4 9 1 9 -5 0 -7 7 -10 15 -7 8 4 17 2 20 -4 4 -5 11 -7 16 -4 5 4
9 2 9 -2 0 -5 9 -9 21 -10 16 -2 18 1 9 12 -6 7 -21 12 -32 10 -17 -4 -19 -2
-10 7 22 22 12 29 -15 12 -16 -9 -21 -10 -13 -3 19 18 25 43 8 33 -7 -4 -10
-3 -5 1 4 5 16 9 26 10 13 1 17 -3 13 -14 -5 -14 -3 -14 10 -3 11 9 18 10 23
2 3 -6 11 -8 16 -5 5 3 6 0 3 -8 -3 -8 2 -14 11 -14 9 0 14 6 11 13 -3 8 -1
16 5 19 5 4 9 3 8 -2 -1 -4 -1 -15 0 -23 1 -12 3 -13 10 -1 7 10 13 11 27 2
11 -6 14 -11 7 -11 -7 0 -10 -7 -7 -17 5 -17 5 -17 -6 0 -6 9 -15 15 -21 12
-11 -7 -12 -26 -1 -22 4 1 8 -2 10 -8 1 -5 -2 -10 -7 -10 -5 0 -13 -3 -17 -7
-4 -5 1 -8 12 -8 22 0 59 54 49 70 -3 6 1 10 10 10 10 0 13 -5 9 -12 -4 -7 -3
-8 5 -4 6 4 9 12 5 17 -3 5 0 17 8 26 11 15 10 16 -9 11 -13 -4 -26 -1 -29 4
-4 6 -14 1 -25 -13 -10 -13 -19 -19 -19 -13 0 6 9 19 20 29 11 10 17 22 13 28
-3 6 -1 7 6 3 6 -4 9 -11 6 -16 -3 -5 -1 -11 4 -14 8 -6 17 7 20 28 1 10 -66
16 -74 7z m59 -68 c-20 -15 -34 -17 -34 -5 0 13 7 18 30 18 20 0 20 -1 4 -13z"/>
<path d="M2720 2939 c-7 -13 -9 -21 -5 -17 4 4 19 -1 33 -12 13 -11 29 -17 35
-13 6 3 7 1 3 -5 -4 -6 -14 -8 -24 -5 -13 4 -12 1 5 -16 12 -11 28 -21 35 -21
8 0 6 5 -5 11 -10 6 -14 15 -10 22 13 22 10 45 -6 42 -9 -1 -23 7 -32 18 l-17
20 -12 -24z m30 -14 c14 -19 14 -19 -2 -6 -10 7 -18 18 -18 24 0 6 1 8 3 6 1
-2 9 -13 17 -24z"/>
<path d="M2461 2893 c-1 -16 -61 -44 -75 -36 -6 4 -5 -1 3 -11 8 -10 17 -13
20 -7 12 18 96 48 134 47 20 -1 37 3 37 7 0 10 -68 7 -92 -5 -10 -5 -18 -3
-21 5 -4 8 -6 9 -6 0z"/>
<path d="M2590 2893 c0 -5 14 -9 31 -9 35 -2 33 5 -5 12 -14 2 -26 1 -26 -3z"/>
<path d="M2666 2875 c3 -8 9 -14 12 -13 24 5 105 -50 96 -64 -4 -6 -2 -8 4 -4
6 3 19 -5 30 -19 11 -14 25 -25 32 -25 6 0 -10 21 -37 46 -52 50 -147 105
-137 79z"/>
<path d="M2338 2809 c-16 -15 -28 -32 -28 -37 0 -5 -9 -17 -20 -27 -11 -10
-20 -23 -20 -29 0 -6 -7 -24 -15 -40 -9 -16 -13 -31 -11 -34 3 -2 1 -12 -4
-21 -5 -10 -5 -23 1 -32 7 -11 9 -8 10 11 2 58 33 131 75 176 45 48 57 64 48
63 -5 -1 -21 -14 -36 -30z"/>
<path d="M2847 2723 c3 -10 12 -26 19 -36 6 -10 10 -26 7 -37 -3 -10 0 -21 6
-24 18 -12 13 31 -9 74 -21 41 -34 54 -23 23z"/>
<path d="M2889 2608 c-5 -17 -3 -78 2 -78 4 0 6 18 6 40 -1 33 -4 50 -8 38z"/>
<path d="M2236 2548 c3 -13 8 -36 11 -53 2 -16 9 -37 15 -45 6 -11 7 -6 3 15
-13 55 -13 60 -14 83 -1 12 -5 22 -10 22 -6 0 -8 -10 -5 -22z"/>
<path d="M2865 2465 c-9 -31 -20 -53 -26 -50 -5 4 -9 3 -8 -2 3 -19 -3 -31
-36 -66 -20 -21 -41 -35 -47 -31 -6 4 -8 3 -5 -3 4 -6 -10 -18 -32 -27 -22 -8
-42 -19 -45 -25 -3 -5 21 4 54 20 33 16 60 33 60 39 0 5 6 10 13 10 6 0 22 18
35 40 13 24 28 38 34 34 6 -4 8 -3 4 4 -3 6 -1 23 5 39 13 34 21 73 15 73 -3
0 -12 -25 -21 -55z"/>
<path d="M2270 2420 c0 -5 3 -10 8 -10 15 0 30 -48 18 -61 -8 -10 -6 -9 7 0
14 11 17 11 17 1 0 -8 3 -11 6 -8 5 6 -42 88 -51 88 -3 0 -5 -4 -5 -10z"/>
<path d="M1940 2395 c-10 -11 -10 -18 -1 -29 9 -11 9 -15 -1 -19 -10 -4 -10
-6 0 -6 6 -1 12 -6 12 -12 0 -5 -4 -7 -10 -4 -5 3 -10 1 -10 -5 0 -6 7 -10 16
-8 11 2 18 -5 21 -22 2 -13 10 -28 18 -33 9 -4 13 -12 10 -18 -4 -5 -1 -9 6
-9 9 0 9 -3 0 -14 -9 -11 -9 -16 0 -22 7 -4 9 -3 5 4 -3 6 -2 13 3 16 5 4 12
-3 16 -14 3 -11 11 -20 16 -20 5 0 8 -4 6 -9 -1 -5 7 -17 18 -26 l20 -17 -20
6 c-19 6 -19 5 -3 -7 10 -8 15 -17 12 -20 -3 -3 3 -3 15 0 20 5 26 -5 22 -30
-1 -5 3 -6 9 -2 5 3 10 1 10 -5 0 -6 4 -9 9 -6 5 4 11 2 13 -2 4 -11 128 -95
128 -87 0 3 13 -1 30 -10 16 -8 35 -14 42 -13 7 2 12 -2 11 -7 -1 -6 8 -11 20
-12 60 -3 77 -8 72 -22 -4 -11 -3 -12 10 -1 8 7 21 10 28 7 8 -3 14 3 15 16 1
17 -1 19 -8 7 -8 -12 -13 -13 -30 -2 -15 9 -20 9 -20 0 0 -9 -3 -9 -11 -1 -6
6 -19 9 -28 5 -14 -5 -15 -4 -1 14 13 17 13 18 0 8 -13 -9 -31 -11 -45 -4 -3
1 -9 4 -15 5 -5 1 -13 4 -17 5 -5 1 -11 2 -15 1 -5 0 -8 3 -8 9 0 5 -7 10 -15
10 -8 0 -15 5 -15 11 0 6 -7 9 -15 5 -17 -6 -48 21 -40 35 4 5 -2 6 -11 2 -11
-4 -22 1 -31 13 -8 10 -17 18 -21 17 -4 0 -6 4 -4 9 2 6 -4 8 -13 5 -8 -4 -15
-2 -15 2 0 5 -15 25 -32 43 -55 57 -79 92 -73 106 3 7 0 10 -5 7 -10 -6 -13 5
-11 35 0 10 -1 11 -5 3 -3 -7 -10 -13 -15 -13 -6 0 -7 5 -4 10 3 6 0 10 -7 10
-10 0 -10 2 1 9 10 7 10 10 1 13 -7 2 -13 15 -14 28 -1 14 -5 31 -9 38 -5 6
-5 17 -2 22 9 15 -1 12 -15 -5z"/>
<path d="M2343 2336 c4 -10 7 -20 7 -22 0 -2 5 -4 12 -4 6 0 20 -7 30 -17 10
-9 18 -14 18 -11 0 3 -17 20 -37 38 -22 21 -34 27 -30 16z"/>
<path d="M2420 2281 c0 -6 1 -11 3 -11 1 0 23 -7 49 -15 26 -7 50 -10 52 -6 3
4 0 8 -7 9 -30 2 -73 14 -84 24 -9 7 -13 7 -13 -1z"/>
<path d="M2640 2271 c0 -5 -10 -12 -22 -14 -20 -4 -19 -4 5 -6 18 -1 27 4 27
14 0 8 -2 15 -5 15 -3 0 -5 -4 -5 -9z"/>
<path d="M2544 2259 c-9 -15 1 -21 26 -17 21 3 21 3 1 15 -14 9 -22 9 -27 2z"/>
<path d="M2280 2086 c0 -2 8 -10 18 -17 15 -13 16 -12 3 4 -13 16 -21 21 -21
13z"/>
<path d="M2715 2001 c-3 -5 -2 -12 3 -15 5 -3 9 1 9 9 0 17 -3 19 -12 6z"/>
<path d="M2760 1963 c-8 -3 -23 -15 -33 -27 l-19 -21 5 22 c5 21 4 22 -15 9
-11 -8 -27 -12 -34 -9 -8 3 -14 0 -14 -6 0 -9 -5 -9 -20 -1 -13 7 -20 7 -20 1
0 -6 -7 -8 -15 -5 -8 4 -15 1 -15 -7 0 -7 3 -9 6 -6 4 3 16 2 27 -4 15 -9 18
-8 12 2 -6 9 -4 11 7 6 9 -3 19 -3 22 1 10 9 38 12 50 4 19 -11 35 -11 33 1
-1 7 4 11 11 9 8 -1 11 2 6 9 -5 8 2 10 24 7 25 -4 29 -2 21 9 -12 14 -16 14
-39 6z"/>
<path d="M2523 1919 c1 -12 5 -15 11 -9 12 12 29 13 22 1 -3 -5 0 -11 8 -14 9
-4 12 0 9 13 -7 25 -52 33 -50 9z"/>
<path d="M2818 3203 c6 -2 9 -10 6 -15 -4 -7 -2 -8 5 -4 13 9 5 26 -12 25 -9
0 -8 -2 1 -6z"/>
<path d="M1210 4256 c0 -2 8 -10 18 -17 15 -13 16 -12 3 4 -13 16 -21 21 -21
13z"/>
<path d="M4495 3480 c3 -5 8 -10 11 -10 2 0 4 5 4 10 0 6 -5 10 -11 10 -5 0
-7 -4 -4 -10z"/>
</g>
</svg>
